<svg xmlns="http://www.w3.org/2000/svg" width="256" height="256" viewBox="0 0 256 256"><defs><radialGradient id="a"><stop stop-color="#89e3e7" stop-opacity=".5"/><stop offset="1" stop-color="#3ba9ce" stop-opacity="0"/></radialGradient><linearGradient id="b" x2="0" y2="1"><stop stop-color="#67cbd8"/><stop offset="1" stop-color="#347da0"/></linearGradient></defs><circle cx="128" cy="125" r="116" fill="url(#a)"/><path d="M25 207q30-28 57 0 28-31 56 0 28-28 61 0 19-18 38-5v26H22z" fill="#62c8df" opacity=".75"/><ellipse cx="128" cy="218" rx="67" ry="13" fill="#103347" opacity=".25"/><path d="M71 181Q39 157 57 123q11 26 36 28" fill="#3b84a4" stroke="#263d46" stroke-width="8"/><path d="M78 105Q90 67 128 68q39 0 51 37v70q-9 39-51 40-41-1-50-40z" fill="url(#b)" stroke="#263d46" stroke-width="9"/><circle cx="90" cy="85" r="18" fill="#4d9db9" stroke="#263d46" stroke-width="8"/><circle cx="166" cy="85" r="18" fill="#4d9db9" stroke="#263d46" stroke-width="8"/><path d="M96 137q32-25 64 0v43q-12 22-32 22t-32-22z" fill="#e8f1d5"/><path d="M101 124h13M142 124h13" stroke="#263d46" stroke-width="9" stroke-linecap="round"/><path d="M120 151h16l-8 10z" fill="#263d46"/><path d="M107 174q21 12 42 0" fill="none" stroke="#263d46" stroke-width="5"/><path d="M35 116q-24-24 3-41 28 18 5 46M207 102q-7-35 27-34 19 30-12 43" fill="#79e4ec" stroke="#367e9a" stroke-width="6"/></svg>