<svg xmlns="http://www.w3.org/2000/svg" width="256" height="256" viewBox="0 0 256 256"><defs><radialGradient id="a"><stop stop-color="#c9f7ef" stop-opacity=".65"/><stop offset="1" stop-color="#65b8d0" stop-opacity="0"/></radialGradient><linearGradient id="w"><stop stop-color="#eaffef"/><stop offset="1" stop-color="#78c8dd"/></linearGradient></defs><circle cx="128" cy="125" r="116" fill="url(#a)"/><ellipse cx="128" cy="220" rx="70" ry="13" fill="#183841" opacity=".2"/><path d="M103 142Q53 92 24 129q34 3 55 25-34-6-44 18 43 13 79-5M153 142q50-50 79-13-34 3-55 25 34-6 44 18-43 13-79-5" fill="url(#w)" stroke="#365367" stroke-width="8" stroke-linejoin="round"/><path d="M91 121q3-55 37-72 35 17 38 72v63q-13 31-38 31t-37-31z" fill="#9ddbe4" stroke="#365367" stroke-width="9"/><path d="M108 82l20-42 20 42" fill="#e9fff0" stroke="#365367" stroke-width="8"/><path d="M100 137h14M142 137h14" stroke="#29404c" stroke-width="9" stroke-linecap="round"/><path d="M119 153l18 7-18 8z" fill="#efb94f" stroke="#5a4931" stroke-width="4"/><path d="M105 185q23 15 46 0" fill="none" stroke="#efffe9" stroke-width="10" stroke-linecap="round"/><path d="M81 72q-28-15-35 13 24 14 43-3M174 68q27-16 36 11-22 17-43 0" fill="#e5fff3" stroke="#6caec2" stroke-width="6"/></svg>