<svg xmlns="http://www.w3.org/2000/svg" width="256" height="256" viewBox="0 0 256 256"><defs><radialGradient id="a"><stop stop-color="#ffb33e" stop-opacity=".55"/><stop offset="1" stop-color="#7e251f" stop-opacity="0"/></radialGradient><linearGradient id="d" x2="0" y2="1"><stop stop-color="#e8502f"/><stop offset="1" stop-color="#8e2426"/></linearGradient></defs><circle cx="128" cy="125" r="122" fill="url(#a)"/><ellipse cx="128" cy="224" rx="93" ry="16" fill="#28151a" opacity=".45"/><path d="M83 111Q41 55 15 82l34 35-30 22 59 37M173 111q42-56 68-29l-34 35 30 22-59 37" fill="#9f2929" stroke="#392627" stroke-width="9" stroke-linejoin="round"/><path d="M72 116q6-68 56-80 51 12 57 80v69q-17 36-57 38-39-2-56-38z" fill="url(#d)" stroke="#392627" stroke-width="10"/><path d="M86 80L77 22l40 42M170 80l10-58-41 42" fill="#ffb13d" stroke="#392627" stroke-width="9" stroke-linejoin="round"/><path d="M101 132l20-6M155 132l-20-6" stroke="#fff0a3" stroke-width="10" stroke-linecap="round"/><path d="M102 154q26 23 52 0l-7 42h-38z" fill="#5b2426" stroke="#392627" stroke-width="6"/><path d="M113 167l8 16 8-16 8 16 7-16" fill="#fff1ba"/><path d="M109 101l19-24 19 24-19 13z" fill="#ffcb4e" stroke="#7f2b28" stroke-width="6"/><path d="M67 190l-28 35h58M189 190l28 35h-58" fill="none" stroke="#392627" stroke-width="11" stroke-linecap="round"/><g fill="#ffd24b"><circle cx="34" cy="48" r="7"/><circle cx="219" cy="49" r="6"/><circle cx="228" cy="188" r="8"/></g></svg>