<svg xmlns="http://www.w3.org/2000/svg" width="256" height="256" viewBox="0 0 256 256"><defs><radialGradient id="a"><stop stop-color="#ffd86b" stop-opacity=".45"/><stop offset="1" stop-color="#f06a45" stop-opacity="0"/></radialGradient><linearGradient id="f" x2="0" y2="1"><stop stop-color="#ffb14f"/><stop offset="1" stop-color="#d94d32"/></linearGradient></defs><circle cx="128" cy="126" r="116" fill="url(#a)"/><ellipse cx="127" cy="218" rx="74" ry="15" fill="#102b2a" opacity=".28"/><path d="M65 169Q22 145 47 98Q63 132 92 142" fill="#f2643d" stroke="#273c38" stroke-width="8"/><path d="M44 102Q34 72 64 54Q65 86 79 105" fill="#ffd45a" stroke="#273c38" stroke-width="7"/><path d="M79 103L73 43l43 42M176 101l9-58-44 42" fill="#ee6840" stroke="#273c38" stroke-width="9" stroke-linejoin="round"/><path d="M78 126Q91 78 128 78t51 48v50q-11 35-51 36-39-1-50-36z" fill="url(#f)" stroke="#273c38" stroke-width="9"/><path d="M95 145q33-23 66 0-8 44-33 44t-33-44" fill="#ffe3a0"/><path d="M103 130h13M140 130h13" stroke="#273c38" stroke-width="9" stroke-linecap="round"/><path d="M120 153h16l-8 10z" fill="#273c38"/><path d="M113 183q15 9 30 0" fill="none" stroke="#273c38" stroke-width="5" stroke-linecap="round"/><path d="M181 91l13-28 8 20 18-11-7 24 22 5-34 22z" fill="#ffd65c" stroke="#273c38" stroke-width="7"/></svg>