<svg xmlns="http://www.w3.org/2000/svg" width="256" height="256" viewBox="0 0 256 256"><defs><radialGradient id="a"><stop stop-color="#c6d878" stop-opacity=".45"/><stop offset="1" stop-color="#73543a" stop-opacity="0"/></radialGradient><linearGradient id="c" x2="0" y2="1"><stop stop-color="#a97943"/><stop offset="1" stop-color="#64442f"/></linearGradient></defs><circle cx="128" cy="125" r="116" fill="url(#a)"/><ellipse cx="128" cy="220" rx="85" ry="14" fill="#102b2a" opacity=".28"/><path d="M79 147Q42 117 25 145q15 8 30 3-17 14-11 29 29 4 48-17M177 147q37-30 54-2-15 8-30 3 17 14 11 29-29 4-48-17" fill="#759a4f" stroke="#2f3e31" stroke-width="9" stroke-linejoin="round"/><path d="M70 146q5-63 58-82 53 19 58 82v45q-17 26-58 27-40-1-58-27z" fill="url(#c)" stroke="#3f352a" stroke-width="9"/><g fill="none" stroke="#dbb367" stroke-width="7"><path d="M94 88l34 24 34-24M80 119l48 31 48-31M75 158l53 33 53-33"/></g><path d="M105 133h12M139 133h12" stroke="#29362e" stroke-width="9" stroke-linecap="round"/><path d="M117 157q11 8 22 0" fill="none" stroke="#29362e" stroke-width="6" stroke-linecap="round"/><path d="M84 208l-17 19h44M172 208l17 19h-44" fill="none" stroke="#3f352a" stroke-width="9" stroke-linecap="round"/><path d="M109 68l19-31 19 31" fill="#6f9b4f" stroke="#2f3e31" stroke-width="8"/></svg>