<svg xmlns="http://www.w3.org/2000/svg" width="256" height="256" viewBox="0 0 256 256"><defs><radialGradient id="a"><stop stop-color="#ff8a52" stop-opacity=".4"/><stop offset="1" stop-color="#332c43" stop-opacity="0"/></radialGradient><linearGradient id="b"><stop stop-color="#51465f"/><stop offset="1" stop-color="#262536"/></linearGradient></defs><circle cx="128" cy="125" r="116" fill="url(#a)"/><ellipse cx="128" cy="220" rx="72" ry="14" fill="#0d1920" opacity=".35"/><path d="M107 113Q61 60 18 80l31 35-29 12 43 42 52-25M149 113q46-53 89-33l-31 35 29 12-43 42-52-25" fill="url(#b)" stroke="#242838" stroke-width="9" stroke-linejoin="round"/><path d="M88 116q7-47 40-53 34 6 41 53v65q-12 34-41 35-28-1-40-35z" fill="#3e3a4d" stroke="#242838" stroke-width="9"/><path d="M101 80L85 40l35 27M155 80l17-40-36 27" fill="#f26c43" stroke="#242838" stroke-width="8"/><path d="M101 132h14M141 132h14" stroke="#ffb44f" stroke-width="9" stroke-linecap="round"/><path d="M116 157l12 10 12-10" fill="none" stroke="#ec6a42" stroke-width="6"/><path d="M102 190l12 20M154 190l-12 20" stroke="#242838" stroke-width="8"/><g fill="#ff8b45"><circle cx="39" cy="62" r="6"/><circle cx="218" cy="57" r="5"/><circle cx="56" cy="187" r="5"/><circle cx="201" cy="190" r="6"/></g></svg>