<svg xmlns="http://www.w3.org/2000/svg" width="256" height="256" viewBox="0 0 256 256" role="img" aria-labelledby="t d"><title id="t">Lynglo</title><desc id="d">Et lilla og grønt kattedyr av lyng og blader.</desc><defs><linearGradient id="g" x1="0" y1="0" x2="1" y2="1"><stop stop-color="#a784c7"/><stop offset="1" stop-color="#624b82"/></linearGradient></defs><ellipse cx="128" cy="220" rx="74" ry="17" fill="#132d2a" opacity=".28"/><path d="M54 179Q50 126 89 105L77 58l36 30q18-6 35 1l39-30-12 51q31 29 23 76-48 37-102 13z" fill="url(#g)" stroke="#273b38" stroke-width="9" stroke-linejoin="round"/><path d="M72 166q-31 4-38 35 28-15 55-1M184 164q32 4 38 36-28-16-55 0" fill="none" stroke="#bfdf7a" stroke-width="15" stroke-linecap="round"/><path d="M88 108q40-25 80 0-9 34-40 43-31-9-40-43z" fill="#d8e8a4"/><path d="M100 117h14v14h-14zm42 0h14v14h-14z" fill="#fff8d1"/><path d="M105 120h6v9h-6zm42 0h6v9h-6z" fill="#30453d"/><path d="m128 133-9 8 9 8 9-8z" fill="#3f5d45"/><path d="M82 80q17 1 26 17M174 80q-17 1-26 17" fill="none" stroke="#bfdf7a" stroke-width="9"/><circle cx="70" cy="158" r="8" fill="#d8a7ec"/><circle cx="187" cy="151" r="7" fill="#d8a7ec"/></svg>