<svg xmlns="http://www.w3.org/2000/svg" width="256" height="256" viewBox="0 0 256 256"><defs><radialGradient id="a"><stop stop-color="#b8df7b" stop-opacity=".5"/><stop offset="1" stop-color="#4b8a56" stop-opacity="0"/></radialGradient><linearGradient id="m" x2="0" y2="1"><stop stop-color="#88bd63"/><stop offset="1" stop-color="#477a4b"/></linearGradient></defs><circle cx="128" cy="125" r="116" fill="url(#a)"/><ellipse cx="128" cy="219" rx="78" ry="15" fill="#102b2a" opacity=".28"/><path d="M92 96Q64 66 72 37q24 15 27 42 9-38 31-55 6 37-12 65 27-30 55-28-8 31-40 45" fill="#75aa55" stroke="#293e35" stroke-width="8" stroke-linejoin="round"/><path d="M58 157q0-67 70-73 71 6 71 73 0 57-71 58-70-1-70-58" fill="url(#m)" stroke="#293e35" stroke-width="9"/><circle cx="78" cy="119" r="24" fill="#9dce70"/><circle cx="112" cy="105" r="28" fill="#a9d87a"/><circle cx="151" cy="109" r="27" fill="#8fc564"/><circle cx="180" cy="130" r="22" fill="#79ae58"/><path d="M93 151q35-25 70 0v35q-14 19-35 19t-35-19z" fill="#d8dfa0"/><path d="M100 149h13M143 149h13" stroke="#263d35" stroke-width="9" stroke-linecap="round"/><path d="M120 170q8 7 16 0" fill="none" stroke="#263d35" stroke-width="6" stroke-linecap="round"/><path d="M74 207l-12 19h37l-8-20M165 206l-8 20h37l-13-21" fill="#5f8c4f" stroke="#293e35" stroke-width="7"/></svg>