<svg xmlns="http://www.w3.org/2000/svg" width="256" height="256" viewBox="0 0 256 256" role="img" aria-labelledby="t d"><title id="t">Ravnbluss</title><desc id="d">En mørk ravn med oransje solglør i vingene.</desc><ellipse cx="128" cy="219" rx="72" ry="16" fill="#132d2a" opacity=".3"/><path d="M128 38q28 20 31 55 45 2 72 34-29-2-52 11 33 14 45 42-31-10-61 3-8 31-35 45-28-14-36-45-31-13-61-3 12-28 45-42-23-13-52-11 27-32 72-34 3-35 32-55z" fill="#292d3b" stroke="#172427" stroke-width="9" stroke-linejoin="round"/><path d="M43 130q36-18 69 1-33 14-54 43 6-28-15-44zm170 0q-36-18-69 1 33 14 54 43-6-28 15-44z" fill="#ef7846"/><path d="M58 141q24-8 42 0M198 141q-24-8-42 0" stroke="#ffd468" stroke-width="8" stroke-linecap="round"/><path d="M105 91q23-14 46 0l-8 48-15 17-15-17z" fill="#3c4252"/><path d="M109 103h12v12h-12zm26 0h12v12h-12z" fill="#fff2b0"/><path d="M113 106h5v7h-5zm26 0h5v7h-5z" fill="#18272a"/><path d="m128 116-14 11 14 7 14-7z" fill="#ffd468"/><path d="M113 190l-13 28m43-28 13 28" stroke="#ef7846" stroke-width="9" stroke-linecap="round"/></svg>