<svg xmlns="http://www.w3.org/2000/svg" width="256" height="256" viewBox="0 0 256 256" role="img" aria-labelledby="t d"><title id="t">Stormhjort</title><desc id="d">En blå fjordhjort med skyer og bølger i geviret.</desc><ellipse cx="128" cy="221" rx="77" ry="17" fill="#132d2a" opacity=".3"/><path d="M84 112q12-40 44-42 33 2 44 42l20 75q-24 31-64 31t-64-31z" fill="#527d9e" stroke="#263e4d" stroke-width="9"/><path d="M94 81 73 61 58 32m25 38L55 74m107 7 21-20 15-29m-25 38 28 4" fill="none" stroke="#bce4df" stroke-width="11" stroke-linecap="round" stroke-linejoin="round"/><path d="M90 65q38-29 76 0-10 22-38 25-28-3-38-25z" fill="#d6f0ea" opacity=".9"/><path d="M96 119q32-19 64 0l-9 50-23 19-23-19z" fill="#78a6b8"/><path d="M104 128h13v13h-13zm35 0h13v13h-13z" fill="#f6f4d4"/><path d="M108 131h6v8h-6zm35 0h6v8h-6z" fill="#263e4d"/><path d="m128 151-11 10 11 8 11-8z" fill="#2f465d"/><path d="M84 191q-22 5-31 27m119-27q22 5 31 27" stroke="#bce4df" stroke-width="13" stroke-linecap="round"/><path d="M75 99q13 11 17 30m89-30q-13 11-17 30" stroke="#d6f0ea" stroke-width="7" stroke-linecap="round"/></svg>